<svg xmlns="http://www.w3.org/2000/svg" viewBox="0 0 512 512">
  <rect width="512" height="512" rx="80" fill="#1a1d27"/>
  <!-- Sun -->
  <circle cx="210" cy="175" r="55" fill="#facc15"/>
  <!-- Sun rays -->
  <g stroke="#facc15" stroke-width="14" stroke-linecap="round">
    <line x1="210" y1="95"  x2="210" y2="75"/>
    <line x1="210" y1="255" x2="210" y2="275"/>
    <line x1="130" y1="175" x2="110" y2="175"/>
    <line x1="290" y1="175" x2="310" y2="175"/>
    <line x1="153" y1="118" x2="139" y2="104"/>
    <line x1="267" y1="232" x2="281" y2="246"/>
    <line x1="267" y1="118" x2="281" y2="104"/>
    <line x1="153" y1="232" x2="139" y2="246"/>
  </g>
  <!-- Cloud -->
  <ellipse cx="280" cy="285" rx="100" ry="60" fill="#f1f5f9"/>
  <ellipse cx="230" cy="300" rx="70"  ry="50" fill="#f1f5f9"/>
  <ellipse cx="330" cy="300" rx="65"  ry="48" fill="#f1f5f9"/>
  <ellipse cx="280" cy="320" rx="110" ry="42" fill="#f1f5f9"/>
  <!-- Rain drops -->
  <g fill="#00d4ff">
    <ellipse cx="225" cy="385" rx="8" ry="14"/>
    <ellipse cx="280" cy="400" rx="8" ry="14"/>
    <ellipse cx="335" cy="385" rx="8" ry="14"/>
  </g>
</svg>
